<svg width="14" height="21" viewBox="0 0 14 21" fill="none" xmlns="http://www.w3.org/2000/svg">
<path d="M3.38818 20.9453C2.56787 20.9453 1.9082 20.7061 1.40918 20.2275C0.910156 19.749 0.660645 19.1201 0.660645 18.3408V2.64209C0.660645 1.86279 0.910156 1.23389 1.40918 0.755371C1.9082 0.276855 2.56787 0.0375977 3.38818 0.0375977H10.8018C11.6084 0.0375977 12.2578 0.276855 12.75 0.755371C13.249 1.23389 13.4985 1.86279 13.4985 2.64209V18.3408C13.4985 19.1201 13.249 19.749 12.75 20.2275C12.2578 20.7061 11.6084 20.9453 10.8018 20.9453H3.38818ZM3.64453 19.1714H10.5146C10.9111 19.1714 11.2153 19.0654 11.4272 18.8535C11.646 18.6484 11.7554 18.3579 11.7554 17.9819V3.00098C11.7554 2.61816 11.646 2.32422 11.4272 2.11914C11.2153 1.91406 10.9111 1.81152 10.5146 1.81152H9.25342C9.10303 1.81152 9.02783 1.89014 9.02783 2.04736V2.27295C9.02783 2.48486 8.96289 2.65576 8.83301 2.78564C8.70996 2.90869 8.54932 2.97021 8.35107 2.97021H5.81836C5.61328 2.97021 5.44922 2.90869 5.32617 2.78564C5.20312 2.65576 5.1416 2.48486 5.1416 2.27295V2.04736C5.1416 1.89014 5.06299 1.81152 4.90576 1.81152H3.64453C3.24805 1.81152 2.94043 1.91406 2.72168 2.11914C2.50977 2.32422 2.40381 2.61816 2.40381 3.00098V17.9819C2.40381 18.3647 2.50977 18.6587 2.72168 18.8638C2.94043 19.0688 3.24805 19.1714 3.64453 19.1714ZM5.0083 18.4331C4.87158 18.4331 4.75879 18.3887 4.66992 18.2998C4.58105 18.2178 4.53662 18.105 4.53662 17.9614C4.53662 17.8179 4.58105 17.7017 4.66992 17.6128C4.75879 17.5308 4.87158 17.4897 5.0083 17.4897H9.16113C9.29785 17.4897 9.41064 17.5308 9.49951 17.6128C9.58838 17.7017 9.63281 17.8179 9.63281 17.9614C9.63281 18.105 9.58838 18.2178 9.49951 18.2998C9.41064 18.3887 9.29785 18.4331 9.16113 18.4331H5.0083Z" fill="#8391A1"/>
<path d="M3.38818 20.9453C2.56787 20.9453 1.9082 20.7061 1.40918 20.2275C0.910156 19.749 0.660645 19.1201 0.660645 18.3408V2.64209C0.660645 1.86279 0.910156 1.23389 1.40918 0.755371C1.9082 0.276855 2.56787 0.0375977 3.38818 0.0375977H10.8018C11.6084 0.0375977 12.2578 0.276855 12.75 0.755371C13.249 1.23389 13.4985 1.86279 13.4985 2.64209V18.3408C13.4985 19.1201 13.249 19.749 12.75 20.2275C12.2578 20.7061 11.6084 20.9453 10.8018 20.9453H3.38818ZM3.64453 19.1714H10.5146C10.9111 19.1714 11.2153 19.0654 11.4272 18.8535C11.646 18.6484 11.7554 18.3579 11.7554 17.9819V3.00098C11.7554 2.61816 11.646 2.32422 11.4272 2.11914C11.2153 1.91406 10.9111 1.81152 10.5146 1.81152H9.25342C9.10303 1.81152 9.02783 1.89014 9.02783 2.04736V2.27295C9.02783 2.48486 8.96289 2.65576 8.83301 2.78564C8.70996 2.90869 8.54932 2.97021 8.35107 2.97021H5.81836C5.61328 2.97021 5.44922 2.90869 5.32617 2.78564C5.20312 2.65576 5.1416 2.48486 5.1416 2.27295V2.04736C5.1416 1.89014 5.06299 1.81152 4.90576 1.81152H3.64453C3.24805 1.81152 2.94043 1.91406 2.72168 2.11914C2.50977 2.32422 2.40381 2.61816 2.40381 3.00098V17.9819C2.40381 18.3647 2.50977 18.6587 2.72168 18.8638C2.94043 19.0688 3.24805 19.1714 3.64453 19.1714ZM5.0083 18.4331C4.87158 18.4331 4.75879 18.3887 4.66992 18.2998C4.58105 18.2178 4.53662 18.105 4.53662 17.9614C4.53662 17.8179 4.58105 17.7017 4.66992 17.6128C4.75879 17.5308 4.87158 17.4897 5.0083 17.4897H9.16113C9.29785 17.4897 9.41064 17.5308 9.49951 17.6128C9.58838 17.7017 9.63281 17.8179 9.63281 17.9614C9.63281 18.105 9.58838 18.2178 9.49951 18.2998C9.41064 18.3887 9.29785 18.4331 9.16113 18.4331H5.0083Z" fill="black" fill-opacity="0.2"/>
</svg>
