<svg width="1151" height="323" viewBox="0 0 1151 323" fill="none" xmlns="http://www.w3.org/2000/svg">
<path fill-rule="evenodd" clip-rule="evenodd" d="M0 24C0 15.5992 0 11.3988 1.6349 8.19014C3.073 5.36771 5.36771 3.073 8.19014 1.6349C11.3988 0 15.5992 0 24 0H1127C1135.4 0 1139.6 0 1142.81 1.6349C1145.63 3.073 1147.93 5.36771 1149.37 8.19014C1151 11.3988 1151 15.5992 1151 24V299C1151 307.401 1151 311.601 1149.37 314.81C1147.93 317.632 1145.63 319.927 1142.81 321.365C1139.6 323 1135.4 323 1127 323H24C15.5992 323 11.3988 323 8.19014 321.365C5.36771 319.927 3.073 317.632 1.6349 314.81C0 311.601 0 307.401 0 299V24Z" fill="#009247"/>
</svg>
